<svg width="24" height="24" viewBox="0 0 24 24" fill="none" xmlns="http://www.w3.org/2000/svg">
<rect width="24" height="24" rx="8" fill="url(#paint0_radial_6344_17578)"/>
<path d="M11.9998 4.99981C15.8657 4.99981 18.9997 8.1339 18.9998 11.9998C18.9998 13.8225 18.3025 15.4818 17.1609 16.7273C17.0988 16.8085 17.0338 16.8877 16.9607 16.9607C16.8877 17.0338 16.8085 17.0988 16.7273 17.1609C15.4818 18.3025 13.8225 18.9998 11.9998 18.9998C8.1339 18.9997 4.9998 15.8657 4.9998 11.9998C4.99985 10.1789 5.6952 8.52031 6.83476 7.2752C6.89765 7.19266 6.96472 7.11302 7.03886 7.03887C7.11301 6.96472 7.19265 6.89766 7.27519 6.83477C8.5203 5.6952 10.1789 4.99986 11.9998 4.99981ZM6.36601 9.93047C6.12901 10.5755 5.99982 11.2726 5.9998 11.9998C5.9998 15.3135 8.68618 17.9997 11.9998 17.9998C12.7271 17.9998 13.424 17.8697 14.0691 17.6326C12.5215 17.3611 10.7262 16.3824 9.17168 14.8279C7.61709 13.2733 6.63739 11.4782 6.36601 9.93047ZM10.2283 7.45586C9.13908 7.15771 8.37496 7.284 7.92168 7.59942C7.81024 7.70275 7.70274 7.81024 7.59941 7.92168C7.284 8.37497 7.1577 9.13909 7.45586 10.2283C7.78805 11.4417 8.60897 12.8511 9.87871 14.1209C11.1486 15.3908 12.5588 16.2116 13.7723 16.5438C14.8593 16.8412 15.6215 16.7153 16.075 16.4012C16.1879 16.2966 16.2966 16.1879 16.4012 16.075C16.7153 15.6215 16.8412 14.8593 16.5437 13.7723C16.2116 12.5588 15.3908 11.1486 14.1209 9.87872C12.8511 8.60898 11.4417 7.78806 10.2283 7.45586ZM11.9998 5.99981C11.2726 5.99983 10.5755 6.12902 9.93047 6.36602C11.4782 6.6374 13.2733 7.6171 14.8279 9.17168C16.3824 10.7262 17.3611 12.5215 17.6326 14.0691C17.8697 13.4241 17.9998 12.7271 17.9998 11.9998C17.9997 8.68619 15.3134 5.99981 11.9998 5.99981Z" fill="white"/>
<path d="M11.9998 4.99981C15.8657 4.99981 18.9997 8.1339 18.9998 11.9998C18.9998 13.8225 18.3025 15.4818 17.1609 16.7273C17.0988 16.8085 17.0338 16.8877 16.9607 16.9607C16.8877 17.0338 16.8085 17.0988 16.7273 17.1609C15.4818 18.3025 13.8225 18.9998 11.9998 18.9998C8.1339 18.9997 4.9998 15.8657 4.9998 11.9998C4.99985 10.1789 5.6952 8.52031 6.83476 7.2752C6.89765 7.19266 6.96472 7.11302 7.03886 7.03887C7.11301 6.96472 7.19265 6.89766 7.27519 6.83477C8.5203 5.6952 10.1789 4.99986 11.9998 4.99981ZM6.36601 9.93047C6.12901 10.5755 5.99982 11.2726 5.9998 11.9998C5.9998 15.3135 8.68618 17.9997 11.9998 17.9998C12.7271 17.9998 13.424 17.8697 14.0691 17.6326C12.5215 17.3611 10.7262 16.3824 9.17168 14.8279C7.61709 13.2733 6.63739 11.4782 6.36601 9.93047ZM10.2283 7.45586C9.13908 7.15771 8.37496 7.284 7.92168 7.59942C7.81024 7.70275 7.70274 7.81024 7.59941 7.92168C7.284 8.37497 7.1577 9.13909 7.45586 10.2283C7.78805 11.4417 8.60897 12.8511 9.87871 14.1209C11.1486 15.3908 12.5588 16.2116 13.7723 16.5438C14.8593 16.8412 15.6215 16.7153 16.075 16.4012C16.1879 16.2966 16.2966 16.1879 16.4012 16.075C16.7153 15.6215 16.8412 14.8593 16.5437 13.7723C16.2116 12.5588 15.3908 11.1486 14.1209 9.87872C12.8511 8.60898 11.4417 7.78806 10.2283 7.45586ZM11.9998 5.99981C11.2726 5.99983 10.5755 6.12902 9.93047 6.36602C11.4782 6.6374 13.2733 7.6171 14.8279 9.17168C16.3824 10.7262 17.3611 12.5215 17.6326 14.0691C17.8697 13.4241 17.9998 12.7271 17.9998 11.9998C17.9997 8.68619 15.3134 5.99981 11.9998 5.99981Z" fill="white"/>
<defs>
<radialGradient id="paint0_radial_6344_17578" cx="0" cy="0" r="1" gradientUnits="userSpaceOnUse" gradientTransform="translate(18.75 1.5) rotate(120.964) scale(26.2393)">
<stop stop-color="#FFF3EB"/>
<stop offset="0.26" stop-color="#FF9042"/>
<stop offset="1" stop-color="#854FFF"/>
</radialGradient>
</defs>
</svg>
