<svg width="16" height="16" viewBox="0 0 16 16" fill="none" xmlns="http://www.w3.org/2000/svg">
<g clip-path="url(#clip0_6344_18523)">
<path d="M3.56026 11.857H5.2009V7.87944L2.85441 6.13388V11.1607C2.85441 11.5423 3.16918 11.857 3.56026 11.857Z" fill="#4285F4"/>
<path d="M10.809 11.857H12.4496C12.8407 11.857 13.1554 11.5423 13.1554 11.1512V6.13388L10.8185 7.88898V11.857H10.809Z" fill="#34A853"/>
<path d="M10.809 4.84837V7.89118L13.1459 6.13608V5.2013C13.1459 4.33329 12.1539 3.83728 11.4576 4.3619L10.809 4.84837Z" fill="#FBBC04"/>
<path fill-rule="evenodd" clip-rule="evenodd" d="M5.19106 7.88164V4.84837L7.9954 6.95639L10.7997 4.84837V7.89118L8.00494 9.98967L5.19106 7.88164Z" fill="#EA4335"/>
<path d="M2.85441 5.19019V6.12497L5.19136 7.88007V4.8468L4.5332 4.35079C3.84642 3.83571 2.85441 4.33172 2.85441 5.19019Z" fill="#C5221F"/>
</g>
<defs>
<clipPath id="clip0_6344_18523">
<rect width="10.9091" height="10.9091" fill="white" transform="translate(2.54546 2.54546)"/>
</clipPath>
</defs>
</svg>
