<svg width="16" height="16" viewBox="0 0 16 16" fill="none" xmlns="http://www.w3.org/2000/svg">
<g clip-path="url(#clip0_6344_18519)">
<path d="M12.7656 7.22367H9.82331C9.66086 7.22367 9.53451 7.40418 9.58866 7.54858L10.2926 9.37168C10.3287 9.44389 10.2565 9.53414 10.1663 9.53414L9.26375 9.47999C9.22765 9.47999 9.19154 9.49804 9.15544 9.53414L8.46952 10.5269C8.43342 10.5811 8.36122 10.5991 8.28902 10.563L7.24209 9.85905C7.20599 9.82295 7.15183 9.82295 7.09768 9.85905L5.65364 10.8338C5.56339 10.906 5.43703 10.8157 5.47313 10.7074L5.8883 9.26338C5.90635 9.20923 5.87025 9.13703 5.81609 9.11898L5.05797 8.81212C4.98577 8.77602 4.94967 8.68576 5.00382 8.63161L5.67169 7.80129C5.70779 7.76519 5.70779 7.69298 5.67169 7.65688L5.11212 6.84461C5.05797 6.77241 5.11212 6.6641 5.20238 6.6641L6.08685 6.5919C6.15905 6.5919 6.19516 6.53775 6.19516 6.46555L6.12295 5.23811C6.12295 5.14786 6.21321 5.09371 6.28541 5.11176L7.36844 5.56302C7.42259 5.58107 7.47674 5.56302 7.51284 5.52692L8.27097 4.69659C8.32512 4.62439 8.43342 4.64244 8.46952 4.7327L8.92079 5.88793C8.97494 6.03233 9.15544 6.08649 9.2818 5.99623L11.0508 4.67854C11.2493 4.53414 11.123 4.20923 10.8702 4.24533L9.73306 4.38974C9.67891 4.38974 9.62476 4.37168 9.60671 4.31753L8.99299 2.74714C8.92079 2.58468 8.72223 2.54858 8.59588 2.67493L7.26014 4.11898C7.22404 4.15508 7.16988 4.17313 7.11573 4.15508L5.36483 3.41501C5.20238 3.3428 5.03992 3.45111 5.02187 3.63161L4.94967 5.43667C4.94967 5.50887 4.89552 5.54497 4.84136 5.54497L3.23487 5.65327C3.05436 5.67132 2.94606 5.86988 3.05436 6.03233L4.11934 7.60273C4.15544 7.63883 4.15544 7.71103 4.11934 7.74714L3.03631 8.99262C2.94606 9.08288 3.00021 9.28143 3.14461 9.33558L4.3901 9.8771C4.44425 9.89515 4.48035 9.96735 4.4623 10.0215L3.66808 13.1081C3.61393 13.3248 3.86664 13.4872 4.04714 13.3609L7.02548 11.2309C7.06158 11.1948 7.11573 11.1948 7.16988 11.2309L8.52368 12.1876C8.63198 12.2598 8.79443 12.2417 8.86664 12.1154L9.71501 10.8157C9.73306 10.7796 9.78721 10.7616 9.82331 10.7616L11.845 11.0143C12.0074 11.0323 12.1699 10.906 12.1157 10.7435L11.2674 8.55941C11.2493 8.50526 11.2674 8.43306 11.3396 8.39696L12.8739 7.67493C13.0905 7.56663 13.0183 7.22367 12.7656 7.22367Z" fill="#8039E9"/>
</g>
<defs>
<clipPath id="clip0_6344_18519">
<rect width="10" height="10.8303" fill="white" transform="translate(3 2.58484)"/>
</clipPath>
</defs>
</svg>
