<svg width="16" height="16" viewBox="0 0 16 16" fill="none" xmlns="http://www.w3.org/2000/svg">
<path fill-rule="evenodd" clip-rule="evenodd" d="M6.95179 4.55816C7.3548 4.13571 7.91627 3.87337 8.53693 3.87337C9.36197 3.87337 10.082 4.33641 10.4653 5.02382C10.8083 4.86965 11.1798 4.79019 11.5555 4.79065C13.0437 4.79065 14.25 6.01524 14.25 7.5261C14.25 9.03696 13.0437 10.2615 11.5555 10.2615C11.3735 10.2615 11.1961 10.2433 11.0245 10.2084C10.687 10.8141 10.0433 11.2235 9.30496 11.2235C8.99586 11.2235 8.70344 11.152 8.44328 11.0239C8.10096 11.8342 7.30354 12.402 6.37433 12.402C5.4067 12.402 4.5818 11.7857 4.26532 10.9217C4.1243 10.9517 3.98058 10.9667 3.83646 10.9667C2.68414 10.9668 1.75001 10.0171 1.75001 8.84547C1.74914 8.47417 1.84501 8.10912 2.02805 7.78673C2.2111 7.46433 2.47492 7.19585 2.79323 7.00803C2.66118 6.70185 2.59323 6.37157 2.59364 6.0378C2.59364 4.69022 3.68061 3.59797 5.02145 3.59797C5.39498 3.59753 5.76355 3.68397 6.0984 3.85053C6.43325 4.01709 6.72531 4.25927 6.95179 4.55816Z" fill="#00A1E0"/>
<path fill-rule="evenodd" clip-rule="evenodd" d="M3.56151 8.16393L3.61209 8.02265C3.62016 7.99844 3.63834 8.00642 3.64572 8.01096C3.65981 8.01935 3.66992 8.02691 3.6881 8.03764C3.83712 8.13242 3.97519 8.13339 4.01826 8.13339C4.12981 8.13339 4.19899 8.07396 4.19899 7.99376V7.98963C4.19899 7.90242 4.09235 7.8694 3.96918 7.83144L3.94184 7.82263C3.77273 7.77421 3.59186 7.70419 3.59186 7.48876V7.48436C3.59186 7.27994 3.75578 7.13729 3.99037 7.13729L4.01607 7.13701C4.15387 7.13701 4.28703 7.17732 4.38354 7.2362C4.39229 7.2417 4.40077 7.25188 4.39585 7.26536L4.3439 7.40664C4.33474 7.43071 4.30972 7.41476 4.30972 7.41476C4.20902 7.36196 4.0976 7.3332 3.98408 7.3307C3.88455 7.3307 3.82058 7.3838 3.82058 7.45589V7.46043C3.82058 7.54448 3.93022 7.58038 4.05736 7.62206L4.07923 7.62894C4.24779 7.68259 4.4277 7.75688 4.4277 7.96116V7.96542C4.4277 8.18621 4.2683 8.32336 4.01197 8.32336C3.88606 8.32336 3.76562 8.30383 3.63821 8.23573C3.61414 8.2217 3.59036 8.2096 3.56684 8.1924C3.56438 8.18882 3.55358 8.18456 3.56137 8.16393H3.56151ZM7.31513 8.16393L7.36585 8.02265C7.37323 7.99954 7.3947 8.00807 7.39934 8.01096C7.41329 8.01962 7.42368 8.02691 7.44172 8.03764C7.59101 8.13242 7.72881 8.13339 7.77229 8.13339C7.88343 8.13339 7.95274 8.07396 7.95274 7.99376V7.98963C7.95274 7.90242 7.84625 7.8694 7.72307 7.83144L7.69573 7.82263C7.52635 7.77421 7.34548 7.70419 7.34548 7.48876V7.48436C7.34548 7.27994 7.50953 7.13729 7.74413 7.13729L7.76969 7.13701C7.90749 7.13701 8.04078 7.17732 8.13744 7.2362C8.14591 7.2417 8.15453 7.25188 8.14974 7.26536C8.14496 7.27788 8.1023 7.39343 8.09779 7.40664C8.08836 7.43071 8.06361 7.41476 8.06361 7.41476C7.96288 7.36194 7.8514 7.33318 7.73784 7.3307C7.63831 7.3307 7.57433 7.3838 7.57433 7.45589V7.46043C7.57433 7.54448 7.68384 7.58038 7.81111 7.62206L7.83299 7.62894C8.00155 7.68259 8.18132 7.75688 8.18132 7.96116V7.96542C8.18132 8.18621 8.02205 8.32336 7.76573 8.32336C7.63968 8.32336 7.51924 8.30383 7.39196 8.23573C7.3679 8.2217 7.34411 8.2096 7.32046 8.1924C7.318 8.18882 7.3072 8.18456 7.31513 8.16393ZM10.0917 7.49963C10.1127 7.57061 10.1231 7.64861 10.1231 7.73101C10.1231 7.81355 10.1127 7.89128 10.0917 7.96226C10.0724 8.0307 10.0394 8.09443 9.99463 8.14948C9.94977 8.20295 9.89351 8.24555 9.83003 8.27411C9.76441 8.30438 9.68731 8.31951 9.60063 8.31951C9.51396 8.31951 9.43658 8.30438 9.37124 8.27411C9.30776 8.24555 9.2515 8.20295 9.20664 8.14948C9.16191 8.09444 9.12883 8.03077 9.10944 7.9624C9.08794 7.88719 9.07735 7.80926 9.078 7.73101C9.078 7.64848 9.08852 7.57061 9.10944 7.49963C9.13049 7.4281 9.16316 7.36509 9.2065 7.31255C9.25147 7.25886 9.30774 7.21592 9.37124 7.18681C9.43672 7.156 9.51369 7.14045 9.60063 7.14045C9.68758 7.14045 9.76455 7.156 9.83003 7.18681C9.89538 7.21749 9.95088 7.25972 9.99463 7.31255C10.0381 7.36509 10.0709 7.4281 10.0917 7.49963ZM9.87788 7.73101C9.87788 7.60624 9.85491 7.50816 9.80925 7.43938C9.76414 7.37115 9.69578 7.33813 9.60063 7.33813C9.50548 7.33813 9.43768 7.37115 9.39311 7.43938C9.34841 7.50816 9.32558 7.60624 9.32558 7.73101C9.32558 7.85565 9.34841 7.95442 9.39338 8.02375C9.43768 8.09281 9.50548 8.12623 9.60063 8.12623C9.69578 8.12623 9.76414 8.09267 9.80925 8.02375C9.85464 7.95442 9.87788 7.85565 9.87788 7.73101ZM11.8495 8.09281L11.902 8.2389C11.9088 8.25678 11.8934 8.26462 11.8934 8.26462C11.8123 8.29626 11.6998 8.31882 11.5903 8.31882C11.4046 8.31882 11.2625 8.26504 11.1676 8.15884C11.0733 8.05291 11.0251 7.90888 11.0251 7.73019C11.0251 7.64751 11.037 7.56924 11.0603 7.49839C11.0835 7.42686 11.1184 7.36386 11.1643 7.31131C11.212 7.25728 11.2708 7.21438 11.3367 7.18557C11.4051 7.1549 11.4854 7.13949 11.5751 7.13949C11.6357 7.13949 11.6895 7.1432 11.7358 7.15008C11.7851 7.15779 11.8509 7.17567 11.8786 7.18654C11.8837 7.18846 11.8978 7.19534 11.892 7.21199C11.8718 7.26935 11.858 7.30677 11.8392 7.35904C11.831 7.38133 11.8144 7.3739 11.8144 7.3739C11.744 7.35161 11.6764 7.34143 11.5882 7.34143C11.4823 7.34143 11.4027 7.37693 11.3508 7.4464C11.2983 7.51641 11.2689 7.60817 11.2685 7.73019C11.2681 7.86404 11.3014 7.96322 11.3605 8.02457C11.4194 8.08579 11.5017 8.11674 11.6053 8.11674C11.6473 8.11674 11.687 8.11399 11.7226 8.10835C11.7579 8.10271 11.791 8.09171 11.8222 8.07946C11.8222 8.07946 11.8423 8.0719 11.8495 8.09281ZM12.9445 7.45905C12.9912 7.6233 12.9668 7.76513 12.966 7.77297C12.9642 7.79168 12.9451 7.79195 12.9451 7.79195L12.2207 7.7914C12.2252 7.90214 12.2516 7.98055 12.3049 8.03379C12.3572 8.08593 12.4404 8.11936 12.5529 8.11949C12.7248 8.11991 12.7983 8.0851 12.8503 8.06571C12.8503 8.06571 12.8702 8.05855 12.8777 8.07836L12.9249 8.21194C12.9344 8.23436 12.9268 8.2422 12.9187 8.24674C12.8733 8.27191 12.7633 8.31896 12.5538 8.31951C12.4522 8.31992 12.3638 8.30534 12.2909 8.27687C12.2217 8.25106 12.1593 8.20949 12.1087 8.1554C12.0603 8.10233 12.0244 8.039 12.0036 7.9701C11.9811 7.8946 11.9701 7.81614 11.9709 7.73734C11.9709 7.6548 11.9814 7.57639 12.0026 7.50472C12.0238 7.4325 12.0567 7.36881 12.1006 7.3153C12.1461 7.26068 12.2031 7.21697 12.2676 7.18736C12.334 7.15586 12.4163 7.14045 12.5068 7.14045C12.5843 7.14045 12.6551 7.15724 12.714 7.18282C12.7594 7.20236 12.8051 7.23771 12.8518 7.28833C12.8814 7.32025 12.9264 7.39013 12.9445 7.45905ZM12.2241 7.61133H12.7408C12.7355 7.54448 12.7225 7.4845 12.6927 7.43938C12.6473 7.37115 12.5847 7.33359 12.4897 7.33359C12.3946 7.33359 12.327 7.37115 12.2823 7.43938C12.2531 7.4845 12.2343 7.542 12.2241 7.61133ZM7.14192 7.45905C7.1884 7.6233 7.16448 7.76513 7.16366 7.77297C7.16174 7.79168 7.14261 7.79195 7.14261 7.79195L6.41805 7.7914C6.4227 7.90214 6.44894 7.98055 6.5024 8.03379C6.55476 8.08593 6.63774 8.11936 6.75025 8.11949C6.92223 8.11991 6.99592 8.0851 7.04787 8.06571C7.04787 8.06571 7.06769 8.05855 7.07507 8.07836L7.12237 8.21194C7.13194 8.23436 7.12429 8.2422 7.11636 8.24674C7.0707 8.27191 6.96051 8.31896 6.75134 8.31951C6.64963 8.31992 6.56118 8.30534 6.48845 8.27687C6.41919 8.25102 6.35678 8.20946 6.30608 8.1554C6.25783 8.10228 6.222 8.03896 6.20123 7.9701C6.17864 7.89463 6.16753 7.81616 6.16828 7.73734C6.16828 7.6548 6.17894 7.57639 6.2 7.50472C6.21969 7.43557 6.25308 7.37114 6.29815 7.3153C6.34362 7.26073 6.4006 7.21702 6.46494 7.18736C6.53165 7.15586 6.61395 7.14045 6.70418 7.14045C6.77549 7.14028 6.8461 7.1547 6.9117 7.18282C6.95709 7.20236 7.00275 7.23771 7.04937 7.28833C7.0789 7.32025 7.12388 7.39013 7.14192 7.45905ZM6.42133 7.61133H6.93836C6.93289 7.54448 6.91991 7.4845 6.89024 7.43938C6.84513 7.37115 6.78224 7.33359 6.68723 7.33359C6.59208 7.33359 6.52441 7.37115 6.47998 7.43938C6.45045 7.4845 6.43185 7.542 6.42133 7.61133ZM5.14365 7.57653C5.14365 7.57653 5.20079 7.58162 5.26313 7.5907V7.55988C5.26313 7.46263 5.24303 7.41682 5.20352 7.38614C5.16306 7.35505 5.10263 7.33896 5.02443 7.33896C5.02443 7.33896 4.84808 7.33676 4.70864 7.41297C4.70221 7.41682 4.69688 7.41902 4.69688 7.41902C4.69688 7.41902 4.67938 7.42521 4.67309 7.40719L4.62183 7.26853C4.6139 7.24858 4.62825 7.2395 4.62825 7.2395C4.69346 7.18833 4.8515 7.15737 4.8515 7.15737C4.91565 7.14603 4.98063 7.14 5.04576 7.13935C5.1904 7.13935 5.30236 7.17319 5.37851 7.24019C5.4548 7.30746 5.49362 7.41586 5.49362 7.56195L5.49403 8.22886C5.49403 8.22886 5.49553 8.24811 5.47735 8.25252C5.47735 8.25252 5.45069 8.25995 5.42677 8.26559C5.40257 8.27123 5.31535 8.28911 5.24413 8.30121C5.17139 8.31348 5.09777 8.31964 5.02402 8.31965C4.95362 8.31965 4.88909 8.31304 4.83222 8.29998C4.77922 8.28881 4.72903 8.2669 4.68471 8.2356C4.64432 8.20608 4.6119 8.16688 4.59038 8.12156C4.5681 8.07575 4.55689 8.01976 4.55689 7.9551C4.55689 7.89169 4.57015 7.83515 4.59572 7.787C4.62142 7.73913 4.65669 7.69855 4.70098 7.66677C4.74674 7.63435 4.7979 7.61045 4.85204 7.5962C4.90851 7.58107 4.96852 7.57323 5.03059 7.57323C5.07611 7.57323 5.11412 7.57419 5.14365 7.57653ZM4.85533 8.08882C4.85492 8.08868 4.92026 8.1404 5.06777 8.13132C5.1714 8.125 5.26327 8.10519 5.26327 8.10519V7.77366C5.26327 7.77366 5.17058 7.75839 5.06654 7.75688C4.91903 7.75509 4.85615 7.8097 4.85656 7.80956C4.81308 7.84065 4.79189 7.88674 4.79189 7.95057C4.79189 7.99142 4.79914 8.02334 4.81377 8.04562C4.82293 8.06034 4.82689 8.06584 4.85533 8.08882ZM10.9874 7.20084C10.9806 7.22079 10.9454 7.32066 10.9327 7.35381C10.9281 7.36647 10.9204 7.37514 10.9063 7.37362C10.9063 7.37362 10.8648 7.36399 10.8268 7.36399C10.8007 7.36399 10.7633 7.3673 10.7297 7.37775C10.696 7.38818 10.6653 7.40674 10.6403 7.43181C10.6138 7.45754 10.5923 7.49372 10.5767 7.53911C10.5609 7.58478 10.5527 7.65742 10.5527 7.73033V8.27343C10.5527 8.27633 10.5521 8.27921 10.5511 8.28189C10.55 8.28458 10.5484 8.28702 10.5463 8.28908C10.5443 8.29114 10.5419 8.29277 10.5392 8.29389C10.5365 8.295 10.5337 8.29557 10.5308 8.29557H10.3406C10.3377 8.29561 10.3348 8.29507 10.3321 8.29398C10.3294 8.2929 10.327 8.29129 10.3249 8.28924C10.3228 8.2872 10.3212 8.28476 10.32 8.28207C10.3189 8.27938 10.3183 8.27649 10.3182 8.27356V7.18612C10.3182 7.17388 10.3271 7.16411 10.3393 7.16411H10.5248C10.5371 7.16411 10.5458 7.17388 10.5458 7.18612V7.27499C10.5736 7.23757 10.6234 7.20456 10.6683 7.1842C10.7134 7.16356 10.7639 7.14843 10.8551 7.15393C10.9025 7.15682 10.9642 7.16989 10.9766 7.17471C10.979 7.17569 10.9813 7.17715 10.9831 7.179C10.985 7.18085 10.9865 7.18306 10.9875 7.18549C10.9885 7.18793 10.989 7.19054 10.989 7.19317C10.989 7.19581 10.9884 7.19842 10.9874 7.20084ZM9.20062 6.69695C9.20568 6.69901 9.21949 6.70575 9.21402 6.72226L9.15838 6.87537C9.15373 6.88692 9.15072 6.8938 9.12707 6.88665C9.09579 6.87675 9.06321 6.87165 9.03042 6.87152C9.00171 6.87152 8.97574 6.87523 8.95277 6.88293C8.92979 6.89034 8.90895 6.90328 8.89207 6.92063C8.8696 6.94248 8.85224 6.96907 8.84121 6.99849C8.81456 7.07552 8.8043 7.15765 8.80294 7.16288H9.03452C9.05407 7.16288 9.06022 7.17196 9.05831 7.1864L9.03124 7.338C9.02687 7.36001 9.00704 7.35918 9.00704 7.35918H8.76835L8.60526 8.28856C8.59123 8.37191 8.56991 8.45385 8.54155 8.53342C8.51598 8.60069 8.4896 8.6498 8.44722 8.69671C8.41105 8.73869 8.36505 8.77093 8.31338 8.79053C8.26321 8.8091 8.20224 8.81859 8.13566 8.81859C8.10394 8.81859 8.06977 8.8179 8.02944 8.80827C8.00697 8.80311 7.98482 8.79658 7.96313 8.78874C7.95425 8.78558 7.947 8.77416 7.9522 8.75958C7.95712 8.74513 8.00004 8.62696 8.00579 8.61142C8.01317 8.59271 8.03203 8.59986 8.03203 8.59986C8.04488 8.60537 8.05391 8.60894 8.071 8.61238C8.08836 8.61582 8.1116 8.61885 8.12923 8.61885C8.16081 8.61885 8.18952 8.615 8.21454 8.60647C8.24462 8.5967 8.26239 8.57895 8.28071 8.55529C8.29985 8.5304 8.31543 8.49669 8.33143 8.45143C8.34742 8.40562 8.36205 8.3451 8.37463 8.27178L8.53704 7.35932H8.37709C8.35795 7.35932 8.35139 7.35024 8.35357 7.33566L8.38037 7.18406C8.38461 7.16205 8.40498 7.16288 8.40498 7.16288H8.56916L8.57805 7.11363C8.60266 6.96726 8.65146 6.85597 8.72365 6.78293C8.79624 6.70933 8.89945 6.67219 9.03042 6.67219C9.06788 6.67219 9.10096 6.67466 9.12899 6.67975C9.15647 6.68498 9.17738 6.6898 9.20062 6.69695ZM5.9639 8.27343C5.9639 8.28581 5.95542 8.29557 5.94312 8.29557H5.75104C5.73874 8.29557 5.7304 8.28567 5.7304 8.27356V6.71731C5.7304 6.70534 5.73888 6.69544 5.75091 6.69544H5.94312C5.95542 6.69544 5.9639 6.70534 5.9639 6.71745V8.27343Z" fill="white"/>
</svg>
