<svg width="16" height="16" viewBox="0 0 16 16" fill="none" xmlns="http://www.w3.org/2000/svg">
<path d="M5.10876 9.32056C5.10876 9.90129 4.63941 10.3706 4.05868 10.3706C3.47795 10.3706 3.00859 9.90129 3.00859 9.32056C3.00859 8.73983 3.47795 8.27048 4.05868 8.27048H5.10876V9.32056ZM5.63381 9.32056C5.63381 8.73983 6.10316 8.27048 6.68389 8.27048C7.26462 8.27048 7.73398 8.73983 7.73398 9.32056V11.9458C7.73398 12.5265 7.26462 12.9959 6.68389 12.9959C6.10316 12.9959 5.63381 12.5265 5.63381 11.9458V9.32056Z" fill="#E01E5A"/>
<path d="M6.68386 5.10431C6.10313 5.10431 5.63377 4.63496 5.63377 4.05423C5.63377 3.4735 6.10313 3.00414 6.68386 3.00414C7.26459 3.00414 7.73394 3.4735 7.73394 4.05423V5.10431H6.68386ZM6.68386 5.63731C7.26459 5.63731 7.73394 6.10667 7.73394 6.68739C7.73394 7.26812 7.26459 7.73748 6.68386 7.73748H4.05069C3.46996 7.73748 3.00061 7.26812 3.00061 6.68739C3.00061 6.10667 3.46996 5.63731 4.05069 5.63731H6.68386Z" fill="#36C5F0"/>
<path d="M10.8911 6.68747C10.8911 6.10674 11.3605 5.63739 11.9412 5.63739C12.5219 5.63739 12.9913 6.10674 12.9913 6.68747C12.9913 7.2682 12.5219 7.73756 11.9412 7.73756H10.8911V6.68747ZM10.3661 6.68747C10.3661 7.2682 9.89671 7.73756 9.31598 7.73756C8.73525 7.73756 8.26589 7.2682 8.26589 6.68747V4.0543C8.26589 3.47358 8.73525 3.00422 9.31598 3.00422C9.89671 3.00422 10.3661 3.47358 10.3661 4.0543V6.68747Z" fill="#2EB67D"/>
<path d="M9.31614 10.8957C9.89687 10.8957 10.3662 11.365 10.3662 11.9458C10.3662 12.5265 9.89687 12.9959 9.31614 12.9959C8.73541 12.9959 8.26605 12.5265 8.26605 11.9458V10.8957H9.31614ZM9.31614 10.3706C8.73541 10.3706 8.26605 9.90129 8.26605 9.32056C8.26605 8.73983 8.73541 8.27048 9.31614 8.27048H11.9493C12.53 8.27048 12.9994 8.73983 12.9994 9.32056C12.9994 9.90129 12.53 10.3706 11.9493 10.3706H9.31614Z" fill="#ECB22E"/>
</svg>
