<?xml version="1.0" encoding="UTF-8"?><svg id="Layer_1" xmlns="http://www.w3.org/2000/svg" xmlns:xlink="http://www.w3.org/1999/xlink" viewBox="0 0 159.94 160"><defs><style>.cls-1{fill:url(#Von_Logomark);}</style><linearGradient id="Von_Logomark" x1="43.53" y1="-909.74" x2="135.53" y2="-814.54" gradientTransform="translate(0 -792.03) scale(1 -1)" gradientUnits="userSpaceOnUse"><stop offset="0" stop-color="#8062a2"/><stop offset=".51" stop-color="#f58f47"/><stop offset="1" stop-color="#feddc5"/></linearGradient></defs><path class="cls-1" d="M79.97,0C35.87,0,0,35.89,0,80s35.87,80,79.97,80,79.97-35.89,79.97-80S124.06,0,79.97,0ZM146,78.11c.17,6.1-.49,12.02-1.88,17.66-.41,1.66-2.72,1.74-3.26.12,0-.02-.01-.04-.02-.06-5.15-15.51-15.92-31.99-30.33-46.4-14.4-14.41-30.88-25.19-46.38-30.34-.02,0-.04-.01-.06-.02-1.62-.54-1.53-2.85.12-3.26,5.64-1.39,11.56-2.05,17.66-1.88,34.86.98,63.16,29.29,64.14,64.17h0ZM33.76,33.78c2.68-2.68,6.81-4.04,11.97-4.04,4.1,0,8.84.85,14.01,2.58,13.49,4.48,28.02,14.06,40.93,26.97,27.23,27.24,35.29,57.14,25.5,66.93-2.66,2.66-6.8,4-11.97,4-13.86,0-35.11-9.67-54.94-29.51-12.91-12.91-22.48-27.45-26.96-40.95-3.89-11.7-3.35-21.17,1.46-25.99ZM13.94,81.89c-.17-6.1.49-12.02,1.88-17.66.41-1.66,2.72-1.74,3.26-.12,0,.02.01.04.02.06,5.15,15.51,15.92,31.99,30.33,46.4,14.41,14.41,30.88,25.19,46.38,30.34.02,0,.04.01.06.02,1.62.54,1.54,2.85-.12,3.26-5.64,1.39-11.56,2.05-17.66,1.88-34.86-.98-63.16-29.29-64.14-64.17h0Z"/></svg>