<svg width="15" height="15" viewBox="0 0 15 15" fill="none" xmlns="http://www.w3.org/2000/svg">
<path fill-rule="evenodd" clip-rule="evenodd" d="M7.57031 0.00976562C11.3747 0.202421 14.4003 3.34798 14.4004 7.2002L14.3916 7.5498C14.3088 9.2802 13.6139 10.8497 12.5205 12.0488L12.418 12.1768C12.3818 12.2193 12.3437 12.2617 12.3027 12.3027C12.2209 12.3846 12.1333 12.4559 12.0488 12.5205C10.8497 13.6139 9.2802 14.3088 7.5498 14.3916L7.2002 14.4004C3.34798 14.4003 0.202421 11.3747 0.00976562 7.57031L0 7.2002C4.98797e-05 5.32944 0.71407 3.62479 1.88379 2.34473C1.94851 2.26043 2.01865 2.17666 2.09766 2.09766C2.17973 2.01559 2.26687 1.94274 2.35449 1.87598C3.63351 0.711246 5.33393 5.07565e-05 7.2002 0L7.57031 0.00976562ZM1.5459 5.90137C1.45048 6.31879 1.4004 6.75354 1.40039 7.2002C1.40039 10.4034 3.99702 12.9999 7.2002 13C7.64728 13 8.08216 12.9484 8.5 12.8525C7.09291 12.4323 5.56942 11.5089 4.23047 10.1699C2.89169 8.83108 1.96633 7.30834 1.5459 5.90137ZM5.37598 2.84961C4.32573 2.56213 3.63214 2.69284 3.24414 2.95801C3.1455 3.05003 3.05003 3.1455 2.95801 3.24414C2.69285 3.63214 2.56213 4.32573 2.84961 5.37598C3.17108 6.54998 3.97097 7.92989 5.2207 9.17969C6.47056 10.4295 7.85126 11.2293 9.02539 11.5508C10.0728 11.8374 10.7638 11.7063 11.1523 11.4424C11.2524 11.3491 11.3491 11.2524 11.4424 11.1523C11.7063 10.7638 11.8374 10.0728 11.5508 9.02539C11.2293 7.85126 10.4295 6.47056 9.17969 5.2207C7.92989 3.97097 6.54998 3.17108 5.37598 2.84961ZM7.2002 1.40039C6.75354 1.40041 6.31879 1.45048 5.90137 1.5459C7.30834 1.96633 8.83108 2.89169 10.1699 4.23047C11.5089 5.56942 12.4323 7.09291 12.8525 8.5C12.9484 8.08216 13 7.64728 13 7.2002C12.9999 3.99702 10.4034 1.40039 7.2002 1.40039Z" fill="url(#paint0_radial_6344_18507)"/>
<defs>
<radialGradient id="paint0_radial_6344_18507" cx="0" cy="0" r="1" gradientUnits="userSpaceOnUse" gradientTransform="translate(11.1377 1.0752) rotate(120.964) scale(15.3062)">
<stop stop-color="#FFF3EB"/>
<stop offset="0.26" stop-color="#FF9042"/>
<stop offset="1" stop-color="#854FFF"/>
</radialGradient>
</defs>
</svg>
