<svg width="12" height="10" viewBox="0 0 12 10" fill="none" xmlns="http://www.w3.org/2000/svg">
<g clip-path="url(#clip0_1084_7883)">
<path d="M4.99368 1.71685C5.3807 1.31361 5.9195 1.06351 6.51539 1.06351C7.30753 1.06351 7.99863 1.50521 8.36668 2.16094C8.68651 2.01804 9.04053 1.93855 9.413 1.93855C10.8417 1.93855 12 3.10693 12 4.54812C12 5.98948 10.8417 7.15786 9.413 7.15786C9.24187 7.15796 9.07117 7.14095 8.90342 7.10709C8.57933 7.6852 7.96172 8.07581 7.25283 8.07581C6.95607 8.07581 6.67539 8.00727 6.42548 7.88538C6.09693 8.6582 5.33146 9.20007 4.43932 9.20007C3.51026 9.20007 2.71846 8.61222 2.41453 7.78777C2.28172 7.81598 2.14411 7.83068 2.00291 7.83068C0.896757 7.83069 0 6.92471 0 5.80693C0 5.05787 0.402907 4.40384 1.00154 4.05393C0.878294 3.77035 0.809742 3.45736 0.809742 3.12829C0.809742 1.84282 1.85333 0.800781 3.14052 0.800781C3.89624 0.800781 4.56787 1.1601 4.99368 1.71685Z" fill="#00A1E0"/>
<path d="M1.73806 5.15723C1.73054 5.17689 1.7408 5.181 1.74319 5.18441C1.76575 5.20082 1.78867 5.21263 1.81174 5.22578C1.93413 5.29073 2.0497 5.3097 2.17055 5.3097C2.4167 5.3097 2.56952 5.17877 2.56952 4.96799V4.9639C2.56952 4.76901 2.39705 4.69825 2.23517 4.64714L2.21415 4.6403C2.09209 4.60064 1.98679 4.56647 1.98679 4.48612V4.48185C1.98679 4.41313 2.04833 4.36253 2.14372 4.36253C2.2497 4.36253 2.37552 4.39775 2.45654 4.44253C2.45654 4.44253 2.4803 4.45791 2.48902 4.43484C2.4938 4.42253 2.53483 4.3121 2.53911 4.30014C2.54372 4.28714 2.53552 4.27757 2.52714 4.27244C2.43466 4.2162 2.3068 4.17773 2.17449 4.17773L2.14988 4.1779C1.92458 4.1779 1.76732 4.31397 1.76732 4.50901V4.51312C1.76732 4.71876 1.94082 4.78542 2.1034 4.83192L2.12955 4.83996C2.24801 4.87637 2.35006 4.90764 2.35006 4.99107V4.99518C2.35006 5.07142 2.28374 5.12816 2.17673 5.12816C2.13519 5.12816 2.00271 5.12731 1.85964 5.03687C1.84236 5.02678 1.83228 5.01944 1.81895 5.0114C1.81195 5.00696 1.79434 4.99926 1.78665 5.02252L1.73806 5.15723ZM5.34164 5.15723C5.33412 5.17689 5.34438 5.181 5.34677 5.18441C5.36933 5.20082 5.39225 5.21263 5.41531 5.22578C5.5377 5.29073 5.65328 5.3097 5.77412 5.3097C6.02027 5.3097 6.1731 5.17877 6.1731 4.96799V4.9639C6.1731 4.76901 6.00062 4.69825 5.83873 4.64714L5.81771 4.6403C5.69566 4.60064 5.59035 4.56647 5.59035 4.48612V4.48185C5.59035 4.41313 5.65189 4.36253 5.74728 4.36253C5.85326 4.36253 5.97907 4.39775 6.0601 4.44253C6.0601 4.44253 6.08386 4.45791 6.09257 4.43484C6.09735 4.42253 6.13839 4.3121 6.14266 4.30014C6.14729 4.28714 6.13907 4.27757 6.1307 4.27244C6.03822 4.2162 5.91035 4.17773 5.77805 4.17773L5.75343 4.1779C5.52813 4.1779 5.37087 4.31397 5.37087 4.50901V4.51312C5.37087 4.71876 5.54437 4.78542 5.70694 4.83192L5.73309 4.83996C5.85155 4.87637 5.95379 4.90764 5.95379 4.99107V4.99518C5.95379 5.07142 5.88729 5.12816 5.78027 5.12816C5.73875 5.12816 5.60627 5.12731 5.46319 5.03687C5.44592 5.02678 5.43567 5.01978 5.42269 5.0114C5.41823 5.0085 5.39738 5.00046 5.39019 5.02252L5.34164 5.15723ZM7.80171 4.74438C7.80171 4.86352 7.77949 4.95736 7.73573 5.02369C7.69248 5.08934 7.62701 5.1213 7.53574 5.1213C7.4443 5.1213 7.37917 5.08951 7.3366 5.02369C7.29351 4.95754 7.27165 4.86352 7.27165 4.74438C7.27165 4.62541 7.29351 4.53173 7.3366 4.46608C7.37917 4.40113 7.4443 4.36951 7.53574 4.36951C7.62702 4.36951 7.69249 4.40113 7.73591 4.46608C7.7795 4.53172 7.80171 4.6254 7.80171 4.74438ZM8.00719 4.52352C7.98701 4.45531 7.95556 4.39514 7.91369 4.34506C7.8718 4.2948 7.81882 4.25447 7.7559 4.22506C7.69316 4.19584 7.61899 4.18097 7.53574 4.18097C7.45232 4.18097 7.37813 4.19584 7.31539 4.22506C7.25249 4.25447 7.1995 4.29482 7.15745 4.34506C7.11574 4.39532 7.08428 4.45549 7.06395 4.52352C7.04395 4.59138 7.03386 4.66557 7.03386 4.74438C7.03386 4.82319 7.04395 4.89754 7.06395 4.96523C7.08428 5.03327 7.11558 5.09345 7.15763 5.14369C7.1995 5.19395 7.25267 5.23412 7.31541 5.26266C7.3783 5.29121 7.45232 5.30573 7.53576 5.30573C7.619 5.30573 7.69302 5.29121 7.75591 5.26266C7.81865 5.23412 7.8718 5.19394 7.9137 5.14369C7.95558 5.0936 7.98702 5.03343 8.0072 4.96523C8.02738 4.89737 8.03746 4.82301 8.03746 4.74438C8.03746 4.66575 8.02736 4.59138 8.00719 4.52352ZM9.69448 5.08948C9.68765 5.06948 9.66833 5.077 9.66833 5.077C9.63842 5.08846 9.60661 5.09906 9.57278 5.10435C9.53841 5.10964 9.50063 5.11239 9.46012 5.11239C9.36064 5.11239 9.28167 5.08282 9.22509 5.02435C9.16833 4.96589 9.13654 4.87137 9.13687 4.7435C9.13722 4.62709 9.16525 4.53956 9.21568 4.47291C9.26577 4.40659 9.34201 4.37256 9.44372 4.37256C9.52851 4.37256 9.59312 4.3823 9.6608 4.40367C9.6608 4.40367 9.67704 4.41067 9.68473 4.38948C9.70267 4.33956 9.71601 4.30384 9.73515 4.24897C9.74063 4.23341 9.7273 4.22674 9.72251 4.22486C9.69584 4.21443 9.63293 4.19752 9.58541 4.19034C9.54097 4.1835 9.489 4.17991 9.43123 4.17991C9.34488 4.17991 9.26797 4.19461 9.20217 4.22402C9.13652 4.25324 9.0808 4.29358 9.0367 4.34385C8.9926 4.39411 8.95909 4.45426 8.9367 4.5223C8.91448 4.59016 8.9032 4.66469 8.9032 4.7435C8.9032 4.91393 8.94918 5.05169 9.03996 5.15256C9.13089 5.25376 9.26748 5.30521 9.44561 5.30521C9.5509 5.30521 9.65894 5.28385 9.73655 5.25324C9.73655 5.25324 9.75142 5.24606 9.74492 5.22881L9.69448 5.08948ZM10.054 4.63024C10.0637 4.56409 10.082 4.50904 10.1102 4.46614C10.1528 4.40101 10.2177 4.36529 10.309 4.36529C10.4003 4.36529 10.4607 4.40118 10.5039 4.46614C10.5326 4.50904 10.5451 4.56649 10.5501 4.63024H10.054ZM10.7458 4.48476C10.7284 4.41895 10.6851 4.35245 10.6567 4.32202C10.6119 4.27382 10.5682 4.24015 10.5248 4.22134C10.468 4.19706 10.4 4.181 10.3254 4.181C10.2386 4.181 10.1598 4.19554 10.0959 4.22561C10.0318 4.2557 9.97794 4.29674 9.93571 4.34785C9.89347 4.39878 9.86169 4.45946 9.84151 4.52835C9.82117 4.59691 9.81091 4.67161 9.81091 4.7504C9.81091 4.83058 9.82152 4.90528 9.84254 4.97245C9.86374 5.04015 9.89758 5.0998 9.94339 5.14919C9.98903 5.19895 10.0478 5.23793 10.1183 5.26509C10.1882 5.2921 10.2731 5.30612 10.3707 5.30594C10.5716 5.30525 10.6774 5.26047 10.721 5.23637C10.7287 5.2321 10.7361 5.22458 10.7268 5.20304L10.6813 5.07568C10.6745 5.05671 10.6552 5.06372 10.6552 5.06372C10.6054 5.08218 10.5347 5.11534 10.3697 5.11501C10.2619 5.11484 10.1818 5.08304 10.1318 5.03329C10.0803 4.98236 10.0552 4.90748 10.0507 4.80184L10.7463 4.80253C10.7463 4.80253 10.7646 4.80219 10.7665 4.7844C10.7672 4.77691 10.7904 4.64152 10.7458 4.48476ZM4.4836 4.63024C4.49351 4.56409 4.51164 4.50904 4.53984 4.46614C4.5824 4.40101 4.64736 4.36529 4.73864 4.36529C4.82992 4.36529 4.89027 4.40118 4.93368 4.46614C4.96222 4.50904 4.9747 4.56649 4.97966 4.63024H4.4836ZM5.17522 4.48476C5.15779 4.41895 5.11471 4.35245 5.08634 4.32202C5.04155 4.27382 4.99779 4.24015 4.95437 4.22134C4.89762 4.19706 4.82959 4.181 4.75506 4.181C4.66839 4.181 4.58941 4.19554 4.52549 4.22561C4.46139 4.2557 4.40754 4.29674 4.36532 4.34785C4.3231 4.39878 4.2913 4.45946 4.27113 4.52835C4.25096 4.59691 4.24054 4.67161 4.24054 4.7504C4.24054 4.83058 4.25113 4.90528 4.27216 4.97245C4.29337 5.04015 4.32722 5.0998 4.37302 5.14919C4.41866 5.19895 4.47746 5.23793 4.54789 5.26509C4.61781 5.2921 4.70276 5.30612 4.80037 5.30594C5.00122 5.30525 5.10703 5.26047 5.15063 5.23637C5.15833 5.2321 5.16567 5.22458 5.15644 5.20304L5.11114 5.07568C5.10413 5.05671 5.08482 5.06372 5.08482 5.06372C5.03508 5.08218 4.96448 5.11534 4.79918 5.11501C4.69149 5.11484 4.61149 5.08304 4.5614 5.03329C4.50994 4.98236 4.48482 4.90748 4.48037 4.80184L5.17592 4.80253C5.17592 4.80253 5.19421 4.80219 5.19609 4.7844C5.19675 4.77691 5.22 4.64152 5.17522 4.48476ZM2.98016 5.08567C2.95298 5.06396 2.94922 5.05849 2.94 5.04447C2.92631 5.0231 2.91931 4.99268 2.91931 4.95405C2.91931 4.89285 2.93948 4.84892 2.98137 4.81934C2.98086 4.81952 3.0412 4.76721 3.18307 4.76909C3.28272 4.77046 3.37178 4.78516 3.37178 4.78516V5.1014H3.37195C3.37195 5.1014 3.28358 5.12037 3.18409 5.12635C3.04255 5.1349 2.97965 5.08551 2.98016 5.08567ZM3.25691 4.59695C3.2287 4.5949 3.19212 4.5937 3.14836 4.5937C3.0887 4.5937 3.0311 4.60122 2.97708 4.61575C2.92272 4.63028 2.87383 4.65303 2.83178 4.68309C2.78979 4.71306 2.75528 4.75231 2.73093 4.79779C2.70631 4.84361 2.69383 4.89763 2.69383 4.95814C2.69383 5.01968 2.70443 5.07318 2.72563 5.11695C2.74683 5.16088 2.77743 5.19746 2.81639 5.22567C2.85502 5.25388 2.90272 5.27455 2.9581 5.28703C3.01263 5.29951 3.07451 5.30583 3.14221 5.30583C3.21349 5.30583 3.2846 5.30003 3.35349 5.28822C3.42169 5.27659 3.50545 5.25967 3.52869 5.25438C3.54499 5.25046 3.56123 5.2463 3.57741 5.2419C3.59469 5.23764 3.59332 5.21916 3.59332 5.21916L3.59297 4.5831C3.59297 4.44361 3.55571 4.34019 3.48237 4.27609C3.40938 4.21216 3.30186 4.17984 3.16289 4.17984C3.11075 4.17984 3.02682 4.18703 2.97656 4.19711C2.97656 4.19711 2.8246 4.22652 2.76203 4.2754C2.76203 4.2754 2.74836 4.28396 2.75588 4.3031L2.80511 4.43542C2.81126 4.45251 2.82785 4.4467 2.82785 4.4467C2.82785 4.4467 2.83315 4.44464 2.83931 4.44105C2.97316 4.36823 3.14239 4.37046 3.14239 4.37046C3.21761 4.37046 3.27538 4.38549 3.31435 4.4154C3.3523 4.44446 3.37161 4.48839 3.37161 4.58104V4.61044C3.31178 4.6019 3.25691 4.59695 3.25691 4.59695ZM8.86687 4.23856C8.87215 4.22283 8.86105 4.21531 8.85643 4.2136C8.84464 4.20899 8.7855 4.19651 8.73985 4.1936C8.65251 4.18831 8.60397 4.20301 8.56054 4.22249C8.51746 4.24197 8.4696 4.27342 8.44293 4.30916V4.22455C8.44293 4.21275 8.43455 4.20334 8.42293 4.20334H8.24463C8.23302 4.20334 8.22464 4.21274 8.22464 4.22455V5.26197C8.22464 5.2736 8.23422 5.28318 8.24583 5.28318H8.42857C8.43417 5.28314 8.43952 5.28089 8.44347 5.27692C8.44741 5.27295 8.44961 5.26757 8.44959 5.26197V4.74369C8.44959 4.67412 8.45729 4.60473 8.47268 4.56113C8.48772 4.51805 8.50824 4.48352 8.53353 4.45873C8.559 4.43412 8.58789 4.41686 8.61952 4.40712C8.65182 4.39719 8.68754 4.39395 8.71285 4.39395C8.74926 4.39395 8.78926 4.40334 8.78926 4.40334C8.80258 4.40488 8.81011 4.39668 8.81454 4.38455C8.82652 4.35275 8.86037 4.25753 8.86687 4.23856Z" fill="white"/>
<path d="M7.15186 3.75797C7.12963 3.75113 7.10947 3.74651 7.08314 3.74156C7.05646 3.73678 7.02467 3.73438 6.98861 3.73438C6.86279 3.73438 6.76364 3.76993 6.69408 3.84001C6.62484 3.90976 6.57783 4.01591 6.55423 4.15558L6.54568 4.20258H6.38775C6.38775 4.20258 6.3686 4.20189 6.36449 4.22276L6.33869 4.36754C6.3368 4.38122 6.3428 4.38993 6.36125 4.38993H6.51493L6.35903 5.26036C6.34688 5.33045 6.33286 5.38806 6.31731 5.4318C6.30209 5.47489 6.28723 5.50719 6.26877 5.53078C6.25099 5.55335 6.23423 5.5701 6.20517 5.57984C6.18124 5.58788 6.15355 5.59164 6.12329 5.59164C6.10653 5.59164 6.08416 5.58889 6.06757 5.58547C6.05116 5.58222 6.04244 5.57864 6.02996 5.57333C6.02996 5.57333 6.01201 5.56651 6.00483 5.58445C5.99918 5.59932 5.95816 5.71196 5.9532 5.72582C5.94842 5.73966 5.95526 5.75043 5.96396 5.75368C5.98448 5.76086 5.99969 5.76564 6.02756 5.77231C6.0662 5.78138 6.09883 5.78188 6.12943 5.78188C6.19336 5.78188 6.25182 5.77283 6.3002 5.7554C6.34876 5.73779 6.39113 5.70718 6.42874 5.66582C6.46926 5.62103 6.49473 5.57419 6.51902 5.5101C6.54311 5.44684 6.56381 5.36821 6.5802 5.2766L6.73696 4.38993H6.96602C6.96602 4.38993 6.98532 4.39062 6.98927 4.36959L7.01524 4.22498C7.01696 4.21114 7.01115 4.20259 6.9925 4.20259H6.77011C6.77132 4.19764 6.78139 4.11934 6.80687 4.04568C6.81781 4.0144 6.83832 3.98892 6.85559 3.97148C6.8727 3.95439 6.89235 3.94225 6.9139 3.93524C6.93594 3.92806 6.96108 3.92465 6.9886 3.92465C7.00945 3.92465 7.03013 3.92704 7.04568 3.93028C7.06722 3.9349 7.07559 3.93729 7.08125 3.93901C7.10399 3.94585 7.10705 3.93918 7.11151 3.92825L7.16467 3.78227C7.17014 3.76651 7.15664 3.75984 7.15186 3.75797ZM4.04459 5.26224C4.04459 5.27387 4.03622 5.28328 4.02459 5.28328H3.84014C3.82852 5.28328 3.82031 5.27387 3.82031 5.26224V3.7778C3.82031 3.76618 3.82852 3.75678 3.84014 3.75678H4.02459C4.03622 3.75678 4.04459 3.76618 4.04459 3.7778V5.26224Z" fill="white"/>
</g>
<defs>
<clipPath id="clip0_1084_7883">
<rect width="12" height="8.4" fill="white" transform="translate(0 0.800781)"/>
</clipPath>
</defs>
</svg>
